<svg xmlns="http://www.w3.org/2000/svg" viewBox="0 0 240 180" width="240" height="180" fill="none" role="img" aria-label="Mneme">
  <g transform="translate(72,10) scale(0.96)">
    <rect x="3" y="3" width="94" height="94" rx="26" fill="#0E141A"></rect>
    <g stroke="#F5F7F9" stroke-width="8" stroke-linecap="round" stroke-linejoin="round">
      <path d="M36 28 V84"></path>
      <path d="M64 28 V60"></path>
      <path d="M36 60 Q36 72 50 72 Q64 72 64 60"></path>
    </g>
    <circle cx="36" cy="84" r="5" fill="#2F9CC4"></circle>
  </g>
  <g fill="#0E141A"><g transform="translate(38.16 147.24) scale(0.1946)"><path d="M35.60 0L14.60 0L14.60-140L55.20-140L85.80-14.40L89-14.40L119.60-140L160.20-140L160.20 0L139.20 0L139.20-124.80L136-124.80L105.60 0L69.20 0L38.80-124.80L35.60-124.80L35.60 0ZM242.80 0L221.40 0L221.40-140L263-140L301-14.40L304.20-14.40L304.20-140L325.60-140L325.60 0L284 0L246-125.80L242.80-125.80L242.80 0ZM476.00 0L386.80 0L386.80-140L475.00-140L475.00-120.40L408.40-120.40L408.40-80.20L469.40-80.20L469.40-60.60L408.40-60.60L408.40-19.60L476.00-19.60L476.00 0ZM551.60 0L530.60 0L530.60-140L571.20-140L601.80-14.40L605-14.40L635.60-140L676.20-140L676.20 0L655.20 0L655.20-124.80L652-124.80L621.60 0L585.20 0L554.80-124.80L551.60-124.80L551.60 0ZM826.60 0L737.40 0L737.40-140L825.60-140L825.60-120.40L759-120.40L759-80.20L820-80.20L820-60.60L759-60.60L759-19.60L826.60-19.60L826.60 0Z"></path></g></g>
</svg>